<svg xmlns="http://www.w3.org/2000/svg" viewBox="0 0 106.69 108.52"><defs><style>.cls-1,.cls-4{fill:none;}.cls-2{fill:#00a6eb;}.cls-3{clip-path:url(#clip-path);}.cls-4{stroke:#00a6eb;stroke-miterlimit:10;stroke-width:6.52px;}</style><clipPath id="clip-path" transform="translate(-.66 -.66)"><path class="cls-1" d="M0 0h108v109.84h-108z"/></clipPath></defs><title>Untitled-7</title><path class="cls-2" d="M3.26 3.26h25.73v25.73h-25.73z"/><path class="cls-4" d="M3.26 3.26h25.73v25.73h-25.73z"/><path class="cls-2" d="M40.48 3.26h62.95v25.73h-62.95z"/><path class="cls-4" d="M40.48 3.26h62.95v25.73h-62.95z"/><path class="cls-2" d="M77.69 3.26h25.73v25.73h-25.73z"/><path class="cls-4" d="M77.69 3.26h25.73v25.73h-25.73z"/><path class="cls-2" d="M3.26 41.4h25.73v25.73h-25.73z"/><path class="cls-4" d="M3.26 41.4h25.73v25.73h-25.73z"/><path class="cls-2" d="M40.48 41.4h62.95v25.73h-62.95z"/><path class="cls-4" d="M40.48 41.4h62.95v25.73h-62.95z"/><path class="cls-2" d="M77.69 41.4h25.73v25.73h-25.73z"/><path class="cls-4" d="M77.69 41.4h25.73v25.73h-25.73z"/><path class="cls-2" d="M3.26 79.53h25.73v25.73h-25.73z"/><path class="cls-4" d="M3.26 79.53h25.73v25.73h-25.73z"/><path class="cls-2" d="M40.48 79.53h62.95v25.73h-62.95z"/><path class="cls-4" d="M40.48 79.53h62.95v25.73h-62.95z"/><path class="cls-2" d="M77.69 79.53h25.73v25.73h-25.73z"/><path class="cls-4" d="M77.69 79.53h25.73v25.73h-25.73z"/></svg>