<svg xmlns="http://www.w3.org/2000/svg" viewBox="0 0 63.3 63.3" enable-background="new 0 0 63.3 63.3"><style type="text/css">.st0{fill:#1B1C20;stroke:#00A6EB;stroke-width:5;stroke-miterlimit:10;} .st1{fill:#FFFFFF;}</style><title>aw_btnButtonOnOff</title><path class="st0" d="M11 2.5h41.3c4.7 0 8.5 3.8 8.5 8.5v41.3c0 4.7-3.8 8.5-8.5 8.5h-41.3c-4.7 0-8.5-3.8-8.5-8.5v-41.3c0-4.7 3.8-8.5 8.5-8.5z"/><path class="st1" d="M35.2 22.7v2.2c3.8 1.9 5.3 6.6 3.4 10.4-1.9 3.8-6.6 5.3-10.4 3.4-3.8-1.9-5.3-6.6-3.4-10.4.7-1.4 1.9-2.6 3.4-3.4v-2.2c-5 1.9-7.5 7.6-5.6 12.6s7.6 7.5 12.6 5.6 7.5-7.6 5.6-12.6c-1-2.6-3.1-4.6-5.6-5.6zM30.9 19.7h1.7v11.1h-1.7z"/></svg>