<svg xmlns="http://www.w3.org/2000/svg" viewBox="0 0 105.48 105.47"><defs><style>.cls-1{fill:#f28e00;}</style></defs><title>aw_btnNetwork</title><path class="cls-1" d="M39.63 22.65h27.7v21.75h-27.7zm-21.15 40.22h19.36v14.3h-19.36zm24.28 0h19.36v14.3h-19.36zm24.28 0h19.36v14.3h-19.36zm-40.52-12.52h52.13v3.58h-52.13zm0 3.58h4.17v3.57h-4.17zm47.96 0h4.17v3.57h-4.17zm-22.34 0h4.17v3.57h-4.17zm.6 51.54a52.74 52.74 0 1 1 52.74-52.74 52.8 52.8 0 0 1-52.74 52.74zm0-102.47a49.74 49.74 0 1 0 49.74 49.74 49.79 49.79 0 0 0-49.74-49.74zm-38.009 13.27l2.121-2.121 73.719 73.719-2.121 2.121z"/></svg>