<svg xmlns="http://www.w3.org/2000/svg" viewBox="0 0 105.48 105.47"><defs><style>.cls-1{fill:#f28e00;}</style></defs><title>aw_btnNetwork</title><path class="cls-1" d="M39.63 22.65h27.7v21.75h-27.7zM18.48 62.87h19.36v14.3h-19.36zM42.76 62.87h19.36v14.3h-19.36zM67.04 62.87h19.36v14.3h-19.36zM26.52 50.35h52.13v3.58h-52.13zM26.52 53.93h4.17v3.57h-4.17zM74.48 53.93h4.17v3.57h-4.17zM52.14 53.93h4.17v3.57h-4.17zM52.74 105.47a52.74 52.74 0 1 1 52.74-52.74 52.8 52.8 0 0 1-52.74 52.74zm0-102.47a49.74 49.74 0 1 0 49.74 49.74 49.79 49.79 0 0 0-49.74-49.74zM14.731 16.27l2.121-2.121 73.719 73.719-2.121 2.121z"/></svg>