<svg xmlns="http://www.w3.org/2000/svg" xmlns:xlink="http://www.w3.org/1999/xlink" viewBox="0 0 95.9 128" enable-background="new 0 0 95.9 128"><style type="text/css">.st0{clip-path:url(#SVGID_2_);fill:#00A6EB;}</style><defs><path id="SVGID_1_" d="M0 0h95.9v128h-95.9z"/></defs><clipPath id="SVGID_2_"><use xlink:href="#SVGID_1_" overflow="visible"/></clipPath><path class="st0" d="M86.1 39.7h-14.4v-15.9c0-13.1-10.7-23.8-23.7-23.8-13.1 0-23.8 10.7-23.8 23.8v15.9h-14.3c-5.4 0-9.9 4.4-9.9 9.9v68.5c0 5.4 4.5 9.9 9.9 9.9h76.2c5.4 0 9.9-4.5 9.9-9.9v-68.5c-.1-5.5-4.5-9.9-9.9-9.9m-51.3-14.6c0-7.2 6-13.1 13.2-13.1 7.2 0 13.1 5.9 13.1 13.1v14.6h-26.3v-14.6z"/></svg>