<svg xmlns="http://www.w3.org/2000/svg" viewBox="0 0 105.48 105.47"><defs><style>.cls-1{fill:#f28e00;}</style></defs><title>aw_btnNoWater</title><path class="cls-1" d="M52.74 105.47a52.74 52.74 0 1 1 52.74-52.74 52.8 52.8 0 0 1-52.74 52.74zm0-102.47a49.74 49.74 0 1 0 49.74 49.74 49.79 49.79 0 0 0-49.74-49.74zm-38.009 13.27l2.121-2.121 73.719 73.719-2.121 2.121zm51.969 45.34c0-4.5-3.7-11.75-3.7-11.75l-13.8-25.75-13.8 25.75s-3.7 7.25-3.7 11.75c0 7.75 3.5 17.75 15.53 17.75h3.94c13.03 0 15.53-13.25 15.53-17.75zm-25.25 2s-2.75 4-4.5.25c0 0 2.25-14.25 7.75-23.5 0 0-3.25 13.5-3.25 23.25z"/></svg>