<svg xmlns="http://www.w3.org/2000/svg" xmlns:xlink="http://www.w3.org/1999/xlink" viewBox="0 0 68.7 68.7" enable-background="new 0 0 68.7 68.7"><style type="text/css">.st0{clip-path:url(#SVGID_2_);fill:#504F53;} .st1{clip-path:url(#SVGID_2_);fill:none;stroke:#FFFFFF;stroke-width:7.936;} .st2{fill:#FFFFFF;}</style><defs><path id="SVGID_1_" d="M0 0h68.7v68.7h-68.7z"/></defs><clipPath id="SVGID_2_"><use xlink:href="#SVGID_1_" overflow="visible"/></clipPath><path class="st0" d="M53.5 64.7s11.2 0 11.2-11.2v-38.3s0-11.2-11.2-11.2h-38.3s-11.2 0-11.2 11.2v38.3s0 11.2 11.2 11.2h38.3z"/><path class="st1" d="M53.5 64.7s11.2 0 11.2-11.2v-38.3s0-11.2-11.2-11.2h-38.3s-11.2 0-11.2 11.2v38.3s0 11.2 11.2 11.2h38.3z"/><path class="st2" d="M20.4 34.3l17.7 17.7 4.1-4.1-13.1-13.1 13.5-13.6-4.5-4.5z"/></svg>