<?xml version="1.0" encoding="utf-8"?>
<!-- Generator: Adobe Illustrator 20.1.0, SVG Export Plug-In . SVG Version: 6.00 Build 0)  -->
<svg version="1.1" id="Layer_1" xmlns="http://www.w3.org/2000/svg" xmlns:xlink="http://www.w3.org/1999/xlink" x="0px" y="0px"
	 viewBox="0 0 29 32.5" style="enable-background:new 0 0 29 32.5;" xml:space="preserve">
<style type="text/css">
	.st0{fill:#231F20;}
	.st1{fill:#FFFFFF;}
</style>
<g>
	<g>
		<path class="st0" d="M28,19.3c0,0.3-0.3,0.6-0.6,0.6H16.7c-0.3,0-0.6-0.3-0.6-0.6V8.6c0-0.3,0.3-0.6,0.6-0.6h10.7
			C27.7,8,28,8.3,28,8.6C28,8.6,28,19.3,28,19.3z"/>
		<path class="st1" d="M27.4,20.9H16.7c-0.9,0-1.6-0.7-1.6-1.6V8.6c0-0.9,0.7-1.6,1.6-1.6h10.7C28.3,7,29,7.7,29,8.6v10.7
			C29,20.1,28.3,20.9,27.4,20.9z M17.1,18.9H27V9h-9.9V18.9z"/>
	</g>
	<g>
		<path class="st0" d="M22.9,3.5L21,26.2c0,1.6-1.3,2.8-2.8,2.8H6.9c-1.6,0-2.8-1.3-2.8-2.8l-2-22.7H22.9z"/>
		<path class="st1" d="M18.2,30H6.9c-2.1,0-3.8-1.7-3.8-3.8l-2-23.7h23l-2,23.8C22,28.3,20.3,30,18.2,30z M3.2,4.5L5,26.1
			C5,27.2,5.8,28,6.8,28h11.3c1,0,1.8-0.8,1.8-1.8l1.8-21.7H3.2z"/>
	</g>
	<rect x="2.8" y="2.9" class="st1" width="19.6" height="6.1"/>
</g>
</svg>
