<?xml version="1.0" encoding="utf-8"?>
<!-- Generator: Adobe Illustrator 20.1.0, SVG Export Plug-In . SVG Version: 6.00 Build 0)  -->
<svg version="1.1" id="Layer_1" xmlns="http://www.w3.org/2000/svg" xmlns:xlink="http://www.w3.org/1999/xlink" x="0px" y="0px"
	 viewBox="0 0 29 32.5" style="enable-background:new 0 0 29 32.5;" xml:space="preserve">
<style type="text/css">
	.st0{fill:#231F20;}
	.st1{fill:#FFFFFF;}
</style>
<g>
	<g>
		<path class="st0" d="M27.5,19.3c0,0.3-0.3,0.6-0.6,0.6H16.2c-0.3,0-0.6-0.3-0.6-0.6V8.6c0-0.3,0.3-0.6,0.6-0.6h10.7
			c0.3,0,0.6,0.3,0.6,0.6V19.3z"/>
		<path class="st1" d="M26.9,20.9H16.2c-0.9,0-1.6-0.7-1.6-1.6V8.6c0-0.9,0.7-1.6,1.6-1.6h10.7c0.9,0,1.6,0.7,1.6,1.6v10.7
			C28.5,20.2,27.8,20.9,26.9,20.9z M16.6,18.9h9.9V9h-9.9V18.9z"/>
	</g>
	<g>
		<path class="st0" d="M22.4,3.5l-1.9,22.7c0,1.6-1.3,2.8-2.8,2.8H6.4c-1.6,0-2.8-1.3-2.8-2.8L1.6,3.5H22.4z"/>
		<path class="st1" d="M17.7,30H6.4c-2.1,0-3.8-1.7-3.8-3.8l-2-23.7h23l-2,23.8C21.5,28.3,19.8,30,17.7,30z M2.7,4.5l1.8,21.6
			c0,1.1,0.8,1.9,1.8,1.9h11.3c1,0,1.8-0.8,1.8-1.8l1.8-21.7H2.7z"/>
	</g>
	<rect x="2.3" y="2.9" class="st1" width="19.6" height="11.5"/>
</g>
</svg>
