<svg xmlns="http://www.w3.org/2000/svg" viewBox="0 0 29 32.5" enable-background="new 0 0 29 32.5"><style type="text/css">.st0{fill:#FFFFFF;}</style><path class="st0" d="M27.6 17.5l-1.7-6.9c0-.9-.6-1.6-1.4-1.6h-19.9c-.8 0-1.4.7-1.4 1.6l-1.7 6.9h26.1zM12.1 5.1h4.8v4.8h-4.8zM12.8 19.1h.8v8.2h-.8zM10.1 19.1h.8v8.2h-.8zM7.4 19.1h.8v8.2h-.8zM4.07 27.245l.682-8.171.797.067-.682 8.171zM.627 27.113l1.439-8.073.788.14-1.439 8.073zM26.076 19.045l.787-.141 1.449 8.071-.787.141zM15.4 19.1h.8v8.2h-.8zM18.1 19.1h.8v8.2h-.8zM20.8 19.1h.8v8.2h-.8zM23.47 19.144l.797-.065.663 8.173-.797.065z"/></svg>