<svg xmlns="http://www.w3.org/2000/svg" viewBox="0 0 29 32.5" enable-background="new 0 0 29 32.5"><style type="text/css">.st0{fill:#FFFFFF;}</style><path class="st0" d="M10.423 20.912l1.377-18.55.798.059-1.377 18.55zM14.2 8h.8v16.1h-.8zM16.408 2.775l.797-.071 1.583 17.83-.797.071zM8.9 16.4s-5 1.5-5 5.5 4 4.5 4 4.5 1.4 3.8 6.6 3.8v-1.4s-5.2-.7-5.2-2.7 1.8-2.3 1.8-2.3-5.6 1.8-5.6-2.3 3.5-4.3 3.5-4.3l-.1-.8zM20.1 16.4s5 1.5 5 5.5-4 4.5-4 4.5-1.4 3.8-6.6 3.8v-1.4s5.2-.7 5.2-2.7-1.8-2.3-1.8-2.3 5.6 1.8 5.6-2.3-3.5-4.3-3.5-4.3l.1-.8z"/></svg>