<?xml version="1.0" encoding="utf-8"?>
<!-- Generator: Adobe Illustrator 20.1.0, SVG Export Plug-In . SVG Version: 6.00 Build 0)  -->
<svg version="1.1" id="Layer_1" xmlns="http://www.w3.org/2000/svg" xmlns:xlink="http://www.w3.org/1999/xlink" x="0px" y="0px"
	 viewBox="0 0 29 32.5" style="enable-background:new 0 0 29 32.5;" xml:space="preserve">
<style type="text/css">
	.st0{fill:#FFFFFF;}
</style>
<g>
	
		<rect x="2.2" y="11.2" transform="matrix(7.404187e-02 -0.9973 0.9973 7.404187e-02 -0.9092 22.2771)" class="st0" width="18.6" height="0.8"/>
	<rect x="14.2" y="8" class="st0" width="0.8" height="16.1"/>
	
		<rect x="17.2" y="2.7" transform="matrix(0.9961 -8.842933e-02 8.842933e-02 0.9961 -0.9638 1.607)" class="st0" width="0.8" height="17.9"/>
	<g>
		<path class="st0" d="M8.9,16.4c0,0-5,1.5-5,5.5c0,4,4,4.5,4,4.5s1.4,3.8,6.6,3.8v-1.4c0,0-5.2-0.7-5.2-2.7c0-2,1.8-2.3,1.8-2.3
			s-5.6,1.8-5.6-2.3c0-4.1,3.5-4.3,3.5-4.3L8.9,16.4z"/>
		<path class="st0" d="M20.1,16.4c0,0,5,1.5,5,5.5c0,4-4,4.5-4,4.5s-1.4,3.8-6.6,3.8v-1.4c0,0,5.2-0.7,5.2-2.7c0-2-1.8-2.3-1.8-2.3
			s5.6,1.8,5.6-2.3c0-4.1-3.5-4.3-3.5-4.3L20.1,16.4z"/>
	</g>
</g>
</svg>
