<svg xmlns="http://www.w3.org/2000/svg" viewBox="0 0 29 32.5" enable-background="new 0 0 29 32.5"><style type="text/css">.st0{fill:#231F20;} .st1{fill:#FFFFFF;}</style><path class="st0" d="M28 19.3c0 .3-.3.6-.6.6h-10.7c-.3 0-.6-.3-.6-.6v-10.7c0-.3.3-.6.6-.6h10.7c.3 0 .6.3.6.6v10.7z"/><path class="st1" d="M27.4 20.9h-10.7c-.9 0-1.6-.7-1.6-1.6v-10.7c0-.9.7-1.6 1.6-1.6h10.7c.9 0 1.6.7 1.6 1.6v10.7c0 .8-.7 1.6-1.6 1.6zm-10.3-2h9.9v-9.9h-9.9v9.9z"/><path class="st0" d="M22.9 3.5l-1.9 22.7c0 1.6-1.3 2.8-2.8 2.8h-11.3c-1.6 0-2.8-1.3-2.8-2.8l-2-22.7h20.8z"/><path class="st1" d="M18.2 30h-11.3c-2.1 0-3.8-1.7-3.8-3.8l-2-23.7h23l-2 23.8c-.1 2-1.8 3.7-3.9 3.7zm-15-25.5l1.8 21.6c0 1.1.8 1.9 1.8 1.9h11.3c1 0 1.8-.8 1.8-1.8l1.8-21.7h-18.5zM2.8 2.9h19.6v6.1h-19.6z"/></svg>