<?xml version="1.0" encoding="utf-8"?>
<!-- Generator: Adobe Illustrator 20.1.0, SVG Export Plug-In . SVG Version: 6.00 Build 0)  -->
<svg version="1.1" id="Layer_1" xmlns="http://www.w3.org/2000/svg" xmlns:xlink="http://www.w3.org/1999/xlink" x="0px" y="0px"
	 viewBox="0 0 29 32.5" style="enable-background:new 0 0 29 32.5;" xml:space="preserve">
<style type="text/css">
	.st0{fill:#FFFFFF;}
</style>
<g>
	<path class="st0" d="M27.6,17.5l-1.7-6.9c0-0.9-0.6-1.6-1.4-1.6H4.6c-0.8,0-1.4,0.7-1.4,1.6l-1.7,6.9H27.6z"/>
	<rect x="12.1" y="5.1" class="st0" width="4.8" height="4.8"/>
	<rect x="12.8" y="19.1" class="st0" width="0.8" height="8.2"/>
	<rect x="10.1" y="19.1" class="st0" width="0.8" height="8.2"/>
	<rect x="7.4" y="19.1" class="st0" width="0.8" height="8.2"/>
	
		<rect x="0.7" y="22.8" transform="matrix(8.314608e-02 -0.9965 0.9965 8.314608e-02 -18.7081 26.0468)" class="st0" width="8.2" height="0.8"/>
	
		<rect x="-2.4" y="22.7" transform="matrix(0.1755 -0.9845 0.9845 0.1755 -21.2997 20.7668)" class="st0" width="8.2" height="0.8"/>
	<rect x="26.8" y="18.9" transform="matrix(0.9843 -0.1767 0.1767 0.9843 -3.6432 5.1773)" class="st0" width="0.8" height="8.2"/>
	<rect x="15.4" y="19.1" class="st0" width="0.8" height="8.2"/>
	<rect x="18.1" y="19.1" class="st0" width="0.8" height="8.2"/>
	<rect x="20.8" y="19.1" class="st0" width="0.8" height="8.2"/>
	
		<rect x="23.8" y="19.1" transform="matrix(0.9967 -8.086819e-02 8.086819e-02 0.9967 -1.7963 2.0317)" class="st0" width="0.8" height="8.2"/>
</g>
</svg>
