<svg xmlns="http://www.w3.org/2000/svg" viewBox="0 0 1085 1200" enable-background="new 0 0 1085 1200"><style type="text/css">.st0{stroke:#FFFFFF;stroke-width:2;stroke-linecap:round;stroke-linejoin:round;stroke-miterlimit:10;} .st1{fill:none;stroke:#FFFFFF;stroke-width:2;stroke-linecap:round;stroke-linejoin:round;stroke-miterlimit:10;}</style><path class="st0" d="M712.8 129.2l-5.7 810.1-22.3 15.3c-273.8 112.8-310.8 100.1-310.8 100.1l-29.3-5.8v-874.4"/><path class="st0" d="M824.8 582.7c1.7.3 8.7 26.7 8.7 26.7s7.9 1 11.4-1.9v-30.5l-20.1 5.7zM803.3 525.9l9.9 56.8 40.1-7.1-8.3-60.7zM800.4 519.3l1.3 8s25.5 3.8 47.6-9.6c-1.9-5.3-2.1-8-2.1-8l-46.8 9.6zM92.7 989.2l250.3 64s22.9 9.1 22.9-16.7c0-25.8 6.2-921.4 6.2-921.4"/><path class="st1" d="M372.1 1048.3l8.3-849.6"/><path class="st0" d="M393.8 181.5l-4.5 728s-3.8 72.6 42 56.7M395.4 950l51.9 5.2s8.3-1.2 8.3 13.1v44.8s-6.4 17.2 10.2 12.1 190.4-67.5 190.4-67.5 14-1.3 14-25.5v-49.7l27.4-9.6 7-515.9-21.7 15.9s-195.5 68.8-263.7 89.2c-16.6-1.9-27.2-2.6-27.2-2.6"/><path class="st1" d="M419.2 462.3v-293.6M670.2 882.7l-215.8 78.1M390 927.3l172.3-65.6"/><path class="st0" d="M684 468.2c1.7-.6 57.4 10.8 57.4 10.8s24.7 21.5 5.7 25.3c0 3.8-.5 8.1 0 8.1s16.6-1.9-1.4 19.6v19.1h10.9v121.3h-3.3l1 81.2h-3.3v83.1s-2.9 33.9-27.1 43.9l-58.9 23.9s-4.8 2.9-19 0c-14.3-2.9-256.6-43-256.6-43l1.9-302.8 292.7-90.5z"/><path class="st1" d="M412.9 471.6l-21.1-2.4"/><path class="st0" d="M664.7 476l81.9 13.1-13.9 9.6s-14.3 39.5-54.5 19.7c-15.8 7.5-18.2 7.5-18.2 7.5l-93.4-13.7"/><path class="st1" d="M660.1 525.9v370.6"/><path class="st0" d="M682.9 373.2l8.3 93-280.9 103.8 2.6-98.4zM756.6 565.4l-96.5 42.1-222.1-35.3"/><path class="st0" d="M726.3 572.2l17.5-7.6s7.4-3.3 7.4 10.5 2.4 36.5-12.4 40.1c-14.8 3.6-18-4.1-18.2-13.9v-26.7s3.3-1.4 5.7-2.4zM737.1 575.1c-.9 0-1.8.2-2.6.5 2.7 3.4 4.5 8.6 4.5 14.6 0 8.7-3.7 16-8.8 17.9 1.9 2.4 4.3 3.8 6.9 3.8 6.3 0 11.4-8.2 11.4-18.4-.1-10.2-5.2-18.4-11.4-18.4zM738.9 590.1c0-5.9-1.8-11.2-4.5-14.6-5 1.9-8.8 9.2-8.8 17.9 0 5.9 1.8 11.2 4.5 14.6 5.1-1.9 8.8-9.2 8.8-17.9zM723.3 578.6l21.8-10.5s5.8-2.4 5.9 5.3M737.2 491.3l-9.1 4.8s-14.6 34.1-48.1 18.2c-15.3 6.1-19.9 7.6-19.9 7.6l-86.3-12.4"/><path class="st0" d="M670.2 350.1v-146.2s-1.9-16.7 10-22.4 24.4-17.7 24.4 12.9-9 57.8 27.7 62.6c36.7 4.8 106.5 17.7 106.5 17.7s10.5 2.4 10.5 15.8v47.8l-27.7 11.9s-17.7 1.9-26.3 2.9l-63 7.6-62.1-10.6z"/><path class="st1" d="M691.2 181.5s-15.8 1.9-15.8 20.5v35.3s-1 28.7 22.9 33.9l102.7 17.7s12.2 3.5 27.2-4.3c6.7-4.3 11.5-6.7 11.5-6.7"/><path class="st0" d="M732.3 360.6v-83.4l36.9-14.7"/><path class="st0" d="M782.3 458.2l7.6 27.7v31.8s34.7 8.3 66.2-9.6c-8.3-23.2-11.5-32.2-11.5-32.2l-4.9-28.3-57.4 10.6zM777.2 451.5l8.2-3.8 60.9-10.2 3 10.2-36.1 11.8h-36z"/><path class="st1" d="M813.2 459.5l-2.7-11"/><path class="st0" d="M785.4 447.7l-1.9-13.7s6.4-8 50.6-9.6l1.5 14.8s-21.2 14.5-51.9 9.2"/><path class="st0" d="M818.9 585.9c-2 0-3.3-.1-3.5-.1-2.3-.1-4-2.1-3.9-4.4.1-2.3 2.1-4 4.4-3.9.2 0 19.9 1 34-5.8 2.1-1 4.5-.1 5.5 1.9 1 2.1.1 4.5-1.9 5.5-12.4 6.1-27.8 6.8-34.6 6.8zM814 564.6c-2.2 0-3.6-.1-3.8-.1-2.5-.1-4.4-2.3-4.2-4.7.1-2.5 2.3-4.4 4.7-4.2.2 0 21.5 1.1 36.7-6.3 2.2-1.1 4.9-.1 6 2.1 1.1 2.2.1 4.9-2.1 6-13.3 6.4-29.9 7.2-37.3 7.2zM783.5 434s29.3 7 50.6-9.6"/><path class="st0" d="M828.3 658.5s29.5-10.2 40-5.1c5.1 22.6 6.1 38.4 6.1 38.4l-3.8 3.3 15 93.3h4.8s.6 15.6-6.1 15.9c-6.7.3-9.9-5.4-14-5.1-4.1.3.3 6.4-6.4 7s-13.9-9.6-10-14.3c-3.1-29.6-14.6-93.9-14.6-93.9l-4.3-1.3-6.7-38.2zM833.6 656.8l2.8 23.3 6.4 7 18.9 119M861.7 652l3.4 26.9-5.8 6.7 22.9 118.6M859.3 685.6s-9.8 3.7-16.5 1.5M836.4 680.1l6.4-1.9s-.3 5.4 2.2 5.1c2.5-.3 5.4-4.8 20.1-4.5"/><path class="st0" d="M861.7 771.5l-5.9 1.6 3.5 25.5s9.3.6 9.3 0l-6.9-27.1zM850.7 858.8s-6.1-10.2 29.3-15.9c35.3-5.7 33.8 1 34.4 5.1.6 4.1 29.6 222.3 29.6 222.3s1.9 6.1-4.5 7.3c-6.4 1.3-36.3 7-36.3 7s-3.6.6-6-6.7l-46.5-219.1zM853.9 854.3c1.6 0 33.4 2.5 55.7-10.5"/><path class="st1" d="M553.2 517.1l-2.5-95.8"/><path class="st0" d="M612.9 715.8l-24.8-4.5-79 24.7c-.3-61.7-32.9-106.8-32.9-106.8l-84.3-130.6-.6 98.7 40.1 61.1s23.1 24.8 23.1 82.8v54.8s-2.1 8.9 8.1 11.5c10.2 2.5 28.7 7 28.7 7s3.8 2.5 22.9-4.5l110.2-47.1s7-2.5 6.4-15.3c-.7-12.7 6.9-27.3-17.9-31.8zM391.8 498.6l84.3 130.6s42.5 58.6 31 133.7c72-22.3 112.1-36.9 112.1-36.9M391.2 518.4l78.3 126.1s24.8 35.7 24.8 95.5v65"/></svg>