<svg xmlns="http://www.w3.org/2000/svg" viewBox="0 0 1085 1200" enable-background="new 0 0 1085 1200"><style type="text/css">.st0{stroke:#FFFFFF;stroke-width:2;stroke-linecap:round;stroke-linejoin:round;stroke-miterlimit:10;} .st1{stroke:#FFFFFF;stroke-width:2;stroke-miterlimit:10;}</style><path class="st0" d="M146.3 117.9h52.1v94.3h-52.1zM545.5 164l-408-121.5s-36.5-10.8-48.7 27.7 12.2 53.3 29.8 56.7c17.6 3.5 218.4 60.9 218.4 60.9"/><path class="st1" d="M1044.4 212.2l-7.4 405.8s-11.5 2-11.5 21.6v106.2s-1.4 16.9-18.9 22.3c-17.6 5.4-35.8 11.5-35.8 11.5s6.1 20.3-21 29.1-238.7 81.8-238.7 81.8-3.4 16.2-31.8 26.4c-28.4 10.1-273.9 94.7-273.9 94.7s-16.9 9.5-23 18.3c-6.1 8.8-29.1 36.5-100.8 18.9-71.7-17.6-208.3-52.1-209.7-56.1-1.4-4.1-12.2-2-12.2-31.1s-13.1-567.8-13.1-567.8"/><path class="st1" d="M518.9 164s200.2-83.6 204.2-84.3c4.1-.7 298.2 87.2 298.2 87.2s23 2.7 23 45.3c-64.2 27.7-642.5 257-642.5 257s-20.3 2.7-38.5 0c-18.3-2.7-320.6-76.4-320.6-76.4l3.4-161.6s-3.4-8.8 25-18.9 233.3-91.4 248.2-97.1c14.9-5.7 36.5 2.8 36.5 2.8l163.1 46z"/><path class="st0" d="M700.3 137.8s-3.5-33.1 19.5-40.2c23-7.1 28.1-7.8 40.6 3.4-2 3.7-5.4 12.8-5.4 12.8v2.7M760.3 101l-37.9 16.9s-3.4-6.8-6.1-10.8M518.9 164M586.2 182.6l-67.3-18.6M643.3 253.5v67.6l363.2-142"/><path class="st0" d="M89.4 215.8l225.2-85.3s17.6-8 45.3 0c27.7 8 185.5 52.2 185.5 52.2s32.2 7.9 10.6 16-218.4 86.6-218.4 86.6-18.3 6.1-37.2 0l-27.7-10.3s-41.5 11.8-84.8 5.7l-75.5-44.2c-21.6-5.4-49.2-10.8-23-20.7zM337 140.5v78M59 232.5l41.9 8.8s24.3 37.2 71.7 46.7c47.3 9.5 67.5 5.9 93.8-2.9 48 13.5 41.4 11.7 41.4 11.7s8.8 6.8 37.9-4.7c29.1-11.5 237.4-92 237.4-92s5.4-4.1 18.3 0c12.8 4.1 17.6 8.5 0 15.8-17.6 7.1-168.4 72.1-168.4 72.1s-33.8 12.8-35.2 46c0 12.8 6.1 21 33.1 10.1l169.8-70.4s6.8 5.5-4.7 10.2l-186.3 77.1s-16.2 5.1-13.5 23.7 20.6 31.8 55.8 17.9l184.3-75.7v22.3l-247.9 101.7-65.3-12.5 83.6-35.5M323.1 438.4v-125.4M643.3 347l363.2-139.6M406.6 340.7s1.4-34.7 36.5-49.1l185.3-77.4M419.3 404.3s-23.9-25.7 0-35.6l188.9-76.7s12.2-3.9 11.7-14.8-8.1-10.5-13.1-8.2M214.6 421l7.2-4.1 70.6 15.8s9.7.9 9.7 20.7 7.2 68.6-49.4 66.3"/><path class="st0" d="M214.6 421s-21.2 98.8 36.1 98.7c49.1.1 41.5-47.8 41-64.9-.5-17.1-10.4-19.4-20.7-21.6-10.5-2.3-56.4-12.2-56.4-12.2zM238.8 466.1c0-10.9 4.2-20.6 10.8-27.3-15.7 2.4-27.8 17.7-27.8 36.2 0 20.2 14.3 36.6 32 36.6 8.1 0 15.6-3.5 21.2-9.2-1.4.2-2.8.4-4.2.4-17.7-.1-32-16.5-32-36.7zM253.8 438.4c-1.4 0-2.8.1-4.2.4-6.6 6.7-10.8 16.5-10.8 27.3 0 20.2 14.3 36.6 32 36.6 1.4 0 2.8-.1 4.2-.4 6.6-6.7 10.8-16.5 10.8-27.3 0-20.2-14.3-36.6-32-36.6zM371.5 484.1v511.3M514.3 154.7l82.6 23.8s3.8 8.3-18.6 2l-69.9-19.5"/><path class="st0" d="M979.3 72.2c-11.5-23.7-36.5-29.8-36.5-29.8l-356.6 140.2 45 12.7s12.2 3 12.2 23.2v35.1l332.5-133.3c0-.1 14.8-24.4 3.4-48.1zM682.4 255.5s-1.7-61.2 0-62.9c1.7-1.7-6.1-16.6-6.1-16.6l43.3-21s18.9.3 18.9 32.8v49s0 8.5 7.8 12.5M685 171.8s14.4 1 14.4 31v45.4s0 7.8 7.2 11.6M787.2 214.2s-1.7-61.2 0-62.9c1.7-1.7-6.1-16.6-6.1-16.6l43.3-21s18.9.3 18.9 32.8v49s0 8.5 7.8 12.5M789.9 130.5s14.4 1 14.4 31v45.4s0 7.8 7.2 11.6"/><ellipse class="st0" cx="505.1" cy="289" rx="9.2" ry="16.6"/><ellipse class="st0" cx="505.1" cy="357.3" rx="9.2" ry="16.6"/></svg>