<?xml version="1.0" encoding="utf-8"?>
<!-- Generator: Adobe Illustrator 20.1.0, SVG Export Plug-In . SVG Version: 6.00 Build 0)  -->
<svg version="1.1" id="Layer_2" xmlns="http://www.w3.org/2000/svg" xmlns:xlink="http://www.w3.org/1999/xlink" x="0px" y="0px"
	 viewBox="0 0 1085 660" style="enable-background:new 0 0 1085 660;" xml:space="preserve">
<style type="text/css">
	.st0{stroke:#FFFFFF;stroke-width:2;stroke-linecap:round;stroke-linejoin:round;stroke-miterlimit:10;}
</style>
<path class="st0" d="M766.4,429.7l243.9-96.6c0,0,33.9-15.1,32.8-46.7c-1-31.7,0-67,0-67s-3.1-23.9-21.3-38.4
	c-18.2-14.5-50.9-34.8-50.9-34.8L714.5,298.8L766.4,429.7z"/>
<path class="st0" d="M503.3,191.9l54.9-26.5c0,0,0-23.4,0-41c0.5-27.5,50.4-91.9,237.8-84.1c213.9,8.8,205.1,69.1,206.6,89.8
	s0,85.1,0,85.1s-48.3,73.7-237.8,67.5S503.3,191.9,503.3,191.9z"/>
<ellipse class="st0" cx="785.4" cy="116.8" rx="204.4" ry="62.6"/>
<path class="st0" d="M225.8,381.4c-4.5-6.2,6.4-222.7,6.4-222.7l85.7-31.2l435.3,126.9c0,0,26.2,8.6,28.3,50.6s-4.3,163.5-4.3,163.5
	l-110.7,43.6L225.8,381.4z"/>
<line class="st0" x1="232.2" y1="158.6" x2="678.9" y2="291"/>
<line class="st0" x1="678.9" y1="291" x2="666.4" y2="512.2"/>
<path class="st0" d="M638,160.2c0,0,135.2-49.3,261.3-8.8"/>
</svg>
