<?xml version="1.0" encoding="utf-8"?>
<!-- Generator: Adobe Illustrator 20.1.0, SVG Export Plug-In . SVG Version: 6.00 Build 0)  -->
<svg version="1.1" id="Layer_2" xmlns="http://www.w3.org/2000/svg" xmlns:xlink="http://www.w3.org/1999/xlink" x="0px" y="0px"
	 viewBox="0 0 1085 820" style="enable-background:new 0 0 1085 820;" xml:space="preserve">
<style type="text/css">
	.st0{stroke:#FFFFFF;stroke-width:2;stroke-miterlimit:10;}
</style>
<path class="st0" d="M145.4,136.9v42.6c0,0,20.9,16.1,47.5,0c0-19.8,0-56.8,0-56.8L145.4,136.9z"/>
<path class="st0" d="M135.3,119.3l10.1,17.6c0,0,33.6,13.8,60.9,0C233.6,123,135.3,119.3,135.3,119.3z"/>
<path class="st0" d="M620.9,174.6L118.8,37.8c0,0-15-1.5-24.7,14.6s-18.7,55,0,60.6c18.7,5.6,476.3,142.8,476.3,142.8L620.9,174.6z"
	/>
<path class="st0" d="M862,292v442.8c0,0,27.5,3.4,27.5-22.2c0-25.6,0-432.8,0-432.8"/>
<path class="st0" d="M846.7,205.8v82c0,0,26.9,26.8,55,0c0-25.7,0-82,0-82H846.7z"/>
<path class="st0" d="M900.9,131.3c0,0,41.1,5.2,41.1,21.3s-13.5,20.6-13.5,20.6v15c0,0,20.6,25.4-48.6,27.3
	c-69.2,1.9-58.7-33.6-58.7-33.6l-0.6-16.8L900.9,131.3z"/>
<path class="st0" d="M862,169c0,0,47.5,7.3,72.2-8.3"/>
<path class="st0" d="M828,187c0,0,8.8,20.6,47.8,18.7"/>
<g>
	<path class="st0" d="M981.6,62.1C969.4,35.9,942,33.7,942,33.7L570,189.8c0,0-36.4,19.7-28.4,61.4s43.8,36.3,43.8,36.3l392.5-180.9
		C977.9,106.6,993.9,88.3,981.6,62.1z"/>
</g>
<path class="st0" d="M618.6,239.3c0,9.2-2.1,17.8-5.7,25.1c-6.9,13.9-19.4,23.1-33.7,23.1c-21.8,0-39.4-21.6-39.4-48.2
	c0-19.5,9.4-36.2,23-43.8c5-2.8,10.6-4.4,16.5-4.4C601,191.1,618.6,212.7,618.6,239.3z"/>
</svg>
