<?xml version="1.0" encoding="utf-8"?>
<!-- Generator: Adobe Illustrator 20.1.0, SVG Export Plug-In . SVG Version: 6.00 Build 0)  -->
<svg version="1.1" id="Layer_2" xmlns="http://www.w3.org/2000/svg" xmlns:xlink="http://www.w3.org/1999/xlink" x="0px" y="0px"
	 viewBox="0 0 1085 1200" style="enable-background:new 0 0 1085 1200;" xml:space="preserve">
<style type="text/css">
	.st0{stroke:#FFFFFF;stroke-width:2;stroke-linecap:round;stroke-linejoin:round;stroke-miterlimit:10;}
	.st1{stroke:#FFFFFF;stroke-width:2;stroke-miterlimit:10;}
</style>
<rect x="146.3" y="117.9" class="st0" width="52.1" height="94.3"/>
<path class="st0" d="M545.5,164l-408-121.5c0,0-36.5-10.8-48.7,27.7s12.2,53.3,29.8,56.7c17.6,3.5,218.4,60.9,218.4,60.9"/>
<path class="st1" d="M1044.4,212.2l-7.4,405.8c0,0-11.5,2-11.5,21.6c0,19.6,0,106.2,0,106.2s-1.4,16.9-18.9,22.3
	c-17.6,5.4-35.8,11.5-35.8,11.5s6.1,20.3-21,29.1c-27.1,8.8-238.7,81.8-238.7,81.8s-3.4,16.2-31.8,26.4
	c-28.4,10.1-273.9,94.7-273.9,94.7s-16.9,9.5-23,18.3c-6.1,8.8-29.1,36.5-100.8,18.9c-71.7-17.6-208.3-52.1-209.7-56.1
	c-1.4-4.1-12.2-2-12.2-31.1c0-29.1-13.1-567.8-13.1-567.8"/>
<path class="st1" d="M518.9,164c0,0,200.2-83.6,204.2-84.3c4.1-0.7,298.2,87.2,298.2,87.2s23,2.7,23,45.3
	c-64.2,27.7-642.5,257-642.5,257s-20.3,2.7-38.5,0c-18.3-2.7-320.6-76.4-320.6-76.4l3.4-161.6c0,0-3.4-8.8,25-18.9
	s233.3-91.4,248.2-97.1c14.9-5.7,36.5,2.8,36.5,2.8L518.9,164z"/>
<path class="st0" d="M700.3,137.8c0,0-3.5-33.1,19.5-40.2c23-7.1,28.1-7.8,40.6,3.4c-2,3.7-5.4,12.8-5.4,12.8v2.7"/>
<path class="st0" d="M760.3,101l-37.9,16.9c0,0-3.4-6.8-6.1-10.8"/>
<path class="st0" d="M518.9,164"/>
<line class="st0" x1="586.2" y1="182.6" x2="518.9" y2="164"/>
<polyline class="st0" points="643.3,253.5 643.3,321.1 1006.5,179.1 "/>
<path class="st0" d="M89.4,215.8l225.2-85.3c0,0,17.6-8,45.3,0c27.7,8,185.5,52.2,185.5,52.2s32.2,7.9,10.6,16
	c-21.6,8.1-218.4,86.6-218.4,86.6s-18.3,6.1-37.2,0S272.7,275,272.7,275s-41.5,11.8-84.8,5.7s-75.5-44.2-75.5-44.2
	C90.8,231.1,63.2,225.7,89.4,215.8z"/>
<line class="st0" x1="337" y1="140.5" x2="337" y2="218.5"/>
<path class="st0" d="M59,232.5l41.9,8.8c0,0,24.3,37.2,71.7,46.7c47.3,9.5,67.5,5.9,93.8-2.9c48,13.5,41.4,11.7,41.4,11.7
	s8.8,6.8,37.9-4.7c29.1-11.5,237.4-92,237.4-92s5.4-4.1,18.3,0c12.8,4.1,17.6,8.5,0,15.8C583.8,223,433,288,433,288
	s-33.8,12.8-35.2,46c0,12.8,6.1,21,33.1,10.1s169.8-70.4,169.8-70.4s6.8,5.5-4.7,10.2S409.7,361,409.7,361s-16.2,5.1-13.5,23.7
	s20.6,31.8,55.8,17.9s184.3-75.7,184.3-75.7v22.3L388.4,450.9l-65.3-12.5l83.6-35.5"/>
<line class="st0" x1="323.1" y1="438.4" x2="323.1" y2="313"/>
<line class="st0" x1="643.3" y1="347" x2="1006.5" y2="207.4"/>
<path class="st0" d="M406.6,340.7c0,0,1.4-34.7,36.5-49.1s185.3-77.4,185.3-77.4"/>
<path class="st0" d="M419.3,404.3c0,0-23.9-25.7,0-35.6S608.2,292,608.2,292s12.2-3.9,11.7-14.8s-8.1-10.5-13.1-8.2"/>
<path class="st0" d="M214.6,421l7.2-4.1l70.6,15.8c0,0,9.7,0.9,9.7,20.7c0,19.8,7.2,68.6-49.4,66.3"/>
<path class="st0" d="M214.6,421c0,0-21.2,98.8,36.1,98.7c49.1,0.1,41.5-47.8,41-64.9c-0.5-17.1-10.4-19.4-20.7-21.6
	C260.5,430.9,214.6,421,214.6,421z"/>
<g>
	<path class="st0" d="M238.8,466.1c0-10.9,4.2-20.6,10.8-27.3c-15.7,2.4-27.8,17.7-27.8,36.2c0,20.2,14.3,36.6,32,36.6
		c8.1,0,15.6-3.5,21.2-9.2c-1.4,0.2-2.8,0.4-4.2,0.4C253.1,502.7,238.8,486.3,238.8,466.1z"/>
	<path class="st0" d="M253.8,438.4c-1.4,0-2.8,0.1-4.2,0.4c-6.6,6.7-10.8,16.5-10.8,27.3c0,20.2,14.3,36.6,32,36.6
		c1.4,0,2.8-0.1,4.2-0.4c6.6-6.7,10.8-16.5,10.8-27.3C285.8,454.8,271.5,438.4,253.8,438.4z"/>
</g>
<line class="st0" x1="371.5" y1="484.1" x2="371.5" y2="995.4"/>
<path class="st0" d="M514.3,154.7l82.6,23.8c0,0,3.8,8.3-18.6,2S508.4,161,508.4,161"/>
<g>
	<path class="st0" d="M979.3,72.2c-11.5-23.7-36.5-29.8-36.5-29.8L586.2,182.6l45,12.7c0,0,12.2,3,12.2,23.2c0,5.8,0,19.1,0,35.1
		l332.5-133.3C975.9,120.2,990.7,95.9,979.3,72.2z"/>
</g>
<g>
	<path class="st0" d="M682.4,255.5c0,0-1.7-61.2,0-62.9c1.7-1.7-6.1-16.6-6.1-16.6l43.3-21c0,0,18.9,0.3,18.9,32.8s0,49,0,49
		s0,8.5,7.8,12.5"/>
	<path class="st0" d="M685,171.8c0,0,14.4,1,14.4,31s0,45.4,0,45.4s0,7.8,7.2,11.6"/>
</g>
<g>
	<path class="st0" d="M787.2,214.2c0,0-1.7-61.2,0-62.9c1.7-1.7-6.1-16.6-6.1-16.6l43.3-21c0,0,18.9,0.3,18.9,32.8s0,49,0,49
		s0,8.5,7.8,12.5"/>
	<path class="st0" d="M789.9,130.5c0,0,14.4,1,14.4,31s0,45.4,0,45.4s0,7.8,7.2,11.6"/>
</g>
<ellipse class="st0" cx="505.1" cy="289" rx="9.2" ry="16.6"/>
<ellipse class="st0" cx="505.1" cy="357.3" rx="9.2" ry="16.6"/>
</svg>
