<svg xmlns="http://www.w3.org/2000/svg" viewBox="0 0 1085 660" enable-background="new 0 0 1085 660"><style type="text/css">.st0{stroke:#FFFFFF;stroke-width:2;stroke-linecap:round;stroke-linejoin:round;stroke-miterlimit:10;}</style><path class="st0" d="M766.4 429.7l243.9-96.6s33.9-15.1 32.8-46.7c-1-31.7 0-67 0-67s-3.1-23.9-21.3-38.4-50.9-34.8-50.9-34.8l-256.4 152.6 51.9 130.9zM503.3 191.9l54.9-26.5v-41c.5-27.5 50.4-91.9 237.8-84.1 213.9 8.8 205.1 69.1 206.6 89.8v85.1s-48.3 73.7-237.8 67.5l-261.5-90.8z"/><ellipse class="st0" cx="785.4" cy="116.8" rx="204.4" ry="62.6"/><path class="st0" d="M225.8 381.4c-4.5-6.2 6.4-222.7 6.4-222.7l85.7-31.2 435.3 126.9s26.2 8.6 28.3 50.6l-4.3 163.5-110.7 43.6-440.7-130.7zM232.2 158.6l446.7 132.4M678.9 291l-12.5 221.2M638 160.2s135.2-49.3 261.3-8.8"/></svg>