<svg xmlns="http://www.w3.org/2000/svg" viewBox="0 0 1085 820" enable-background="new 0 0 1085 820"><style type="text/css">.st0{stroke:#FFFFFF;stroke-width:2;stroke-miterlimit:10;}</style><path class="st0" d="M145.4 136.9v42.6s20.9 16.1 47.5 0v-56.8l-47.5 14.2zM135.3 119.3l10.1 17.6s33.6 13.8 60.9 0c27.3-13.9-71-17.6-71-17.6zM620.9 174.6l-502.1-136.8s-15-1.5-24.7 14.6-18.7 55 0 60.6c18.7 5.6 476.3 142.8 476.3 142.8l50.5-81.2zM862 292v442.8s27.5 3.4 27.5-22.2v-432.8"/><path class="st0" d="M846.7 205.8v82s26.9 26.8 55 0v-82h-55zM900.9 131.3s41.1 5.2 41.1 21.3l-13.5 20.6v15s20.6 25.4-48.6 27.3c-69.2 1.9-58.7-33.6-58.7-33.6l-.6-16.8 80.3-33.8zM862 169s47.5 7.3 72.2-8.3M828 187s8.8 20.6 47.8 18.7"/><path class="st0" d="M981.6 62.1c-12.2-26.2-39.6-28.4-39.6-28.4l-372 156.1s-36.4 19.7-28.4 61.4l43.8 36.3 392.5-180.9s16-18.3 3.7-44.5zM618.6 239.3c0 9.2-2.1 17.8-5.7 25.1-6.9 13.9-19.4 23.1-33.7 23.1-21.8 0-39.4-21.6-39.4-48.2 0-19.5 9.4-36.2 23-43.8 5-2.8 10.6-4.4 16.5-4.4 21.7 0 39.3 21.6 39.3 48.2z"/></svg>