<?xml version="1.0" encoding="utf-8"?>
<!-- Generator: Adobe Illustrator 20.1.0, SVG Export Plug-In . SVG Version: 6.00 Build 0)  -->
<svg version="1.1" id="Layer_2" xmlns="http://www.w3.org/2000/svg" xmlns:xlink="http://www.w3.org/1999/xlink" x="0px" y="0px"
	 viewBox="0 0 1085 1693.9" style="enable-background:new 0 0 1085 1693.9;" xml:space="preserve">
<style type="text/css">
	.st0{stroke:#FFFFFF;stroke-width:2;stroke-miterlimit:10;}
	.st1{stroke:#FFFFFF;stroke-width:2;stroke-linecap:round;stroke-linejoin:round;stroke-miterlimit:10;}
</style>
<path class="st0" d="M152.8,151.5V192c0,0,19.9,15.3,45.2,0c0-18.8,0-54,0-54L152.8,151.5z"/>
<path class="st0" d="M143.2,134.8l9.6,16.7c0,0,32,13.2,58,0C236.7,138.3,143.2,134.8,143.2,134.8z"/>
<path class="st0" d="M843.3,289.3V658c0,0,26.1,2.8,26.1-18.5s0-360.4,0-360.4"/>
<path class="st1" d="M540.2,170L126.4,42.2c0,0-37-11.4-49.4,29.1s12.3,56,30.2,59.7s221.6,64.1,221.6,64.1"/>
<path class="st0" d="M1046.3,717.9l-7.5,426.7c0,0-11.7,2.1-11.7,22.8c0,20.6,0,111.6,0,111.6s-1.4,17.8-19.2,23.5
	s-36.4,12.1-36.4,12.1s6.2,21.3-21.3,30.6c-27.4,9.2-242.2,86-242.2,86s-3.4,17.1-32.2,27.7c-28.8,10.7-277.8,99.6-277.8,99.6
	s-17.1,10-23.3,19.2c-6.2,9.2-29.5,38.4-102.2,19.9s-211.3-54.8-212.7-59c-1.4-4.3-12.3-2.1-12.3-32.7c0-30.6-13.3-597.1-13.3-597.1
	l693.4-245.7L1046.3,717.9z"/>
<path class="st0" d="M513.3,170c0,0,203-87.9,207.2-88.7C724.6,80.6,1023,173,1023,173s23.3,2.8,23.3,47.6
	c-65.2,29.2-651.7,270.2-651.7,270.2s-20.6,2.8-39.1,0S30.3,410.6,30.3,410.6l3.4-170c0,0-3.4-9.2,25.4-19.9
	C88,210,295.8,124.5,310.9,118.6c15.1-6,37,2.9,37,2.9L513.3,170z"/>
<path class="st1" d="M697.2,142.4c0,0-3.6-34.8,19.8-42.3s28.5-8.2,41.2,3.6c-2.1,3.9-5.5,13.5-5.5,13.5v2.8"/>
<path class="st1" d="M758.2,103.7l-38.4,17.8c0,0-3.4-7.1-6.2-11.4"/>
<path class="st1" d="M513.3,170"/>
<line class="st1" x1="581.5" y1="189.6" x2="513.3" y2="170"/>
<polyline class="st1" points="639.5,264.1 639.5,335.2 1007.9,185.8 "/>
<path class="st1" d="M77.7,224.5l228.4-89.7c0,0,17.8-8.4,46,0c28.1,8.4,188.2,54.8,188.2,54.8s32.7,8.3,10.8,16.9
	c-22,8.5-221.6,91-221.6,91s-18.5,6.4-37.7,0s-28.1-10.7-28.1-10.7s-42.1,12.4-86,6S101,246.3,101,246.3
	C79,240.6,51,234.9,77.7,224.5z"/>
<line class="st1" x1="328.7" y1="145.3" x2="328.7" y2="227.3"/>
<path class="st1" d="M46.8,242l42.5,9.2c0,0,24.7,39.1,72.7,49.1s68.5,6.2,95.2-3c48.7,14.2,42,12.3,42,12.3s8.9,7.1,38.4-5
	s240.8-96.7,240.8-96.7s5.5-4.3,18.5,0c13,4.3,17.8,9,0,16.6s-170.8,75.9-170.8,75.9s-34.3,13.5-35.7,48.4c0,13.5,6.2,22,33.6,10.7
	c27.4-11.4,172.2-74,172.2-74s6.9,5.8-4.8,10.7c-11.7,5-189,81.1-189,81.1s-16.5,5.3-13.7,24.9c2.7,19.6,20.9,33.4,56.6,18.8
	s186.9-79.6,186.9-79.6v23.5l-251.4,107l-66.2-13.2l84.8-37.4"/>
<line class="st1" x1="314.7" y1="458.6" x2="314.7" y2="326.6"/>
<line class="st1" x1="639.5" y1="362.4" x2="1007.9" y2="215.7"/>
<path class="st1" d="M399.4,355.8c0,0,1.4-36.5,37-51.7c35.7-15.2,188-81.4,188-81.4"/>
<path class="st1" d="M412.2,422.6c0,0-24.2-27,0-37.5c24.2-10.4,191.6-80.6,191.6-80.6s12.3-4.1,11.9-15.5
	c-0.5-11.5-8.2-11-13.3-8.6"/>
<path class="st1" d="M204.6,440.2l7.3-4.3l71.6,16.6c0,0,9.8,0.9,9.8,21.8s7.3,72.1-50.1,69.7"/>
<path class="st1" d="M204.6,440.2c0,0-21.5,103.9,36.6,103.8c49.8,0.1,42.1-50.3,41.6-68.3c-0.5-18-10.5-20.4-21-22.8
	C251.2,450.6,204.6,440.2,204.6,440.2z"/>
<g>
	<path class="st1" d="M229.1,487.7c0-11.5,4.3-21.7,11-28.8c-15.9,2.5-28.2,18.6-28.2,38.1c0,21.2,14.5,38.5,32.5,38.5
		c8.3,0,15.8-3.7,21.5-9.7c-1.4,0.2-2.8,0.4-4.3,0.4C243.7,526.1,229.1,508.9,229.1,487.7z"/>
	<path class="st1" d="M244.4,458.6c-1.5,0-2.9,0.2-4.3,0.4c-6.7,7-11,17.3-11,28.8c0,21.2,14.5,38.5,32.5,38.5
		c1.5,0,2.9-0.2,4.3-0.4c6.7-7,11-17.3,11-28.8C276.8,475.8,262.3,458.6,244.4,458.6z"/>
</g>
<path class="st1" d="M363.7,1541.4v-537.6L282,980.2c0,0,7.6,49.1-40,49.1c-47.7,0-41.4-72.5-41.4-72.5l-166.5-48"/>
<path class="st1" d="M508.6,160.2l83.8,25c0,0,3.9,8.7-18.9,2.1s-70.8-20.4-70.8-20.4"/>
<g>
	<path class="st1" d="M980.2,73.5c-11.7-24.9-37-31.3-37-31.3L581.5,189.6l45.6,13.3c0,0,12.3,3.2,12.3,24.3c0,6.1,0,20.1,0,36.9
		L976.8,124C976.8,124,991.9,98.4,980.2,73.5z"/>
</g>
<g>
	<path class="st1" d="M679.1,266.2c0,0-1.7-64.4,0-66.1c1.7-1.8-6.2-17.4-6.2-17.4l43.9-22c0,0,19.2,0.4,19.2,34.5s0,51.6,0,51.6
		s0,8.9,7.9,13.2"/>
	<path class="st1" d="M681.8,178.2c0,0,14.6,1.1,14.6,32.6s0,47.7,0,47.7s0,8.2,7.3,12.2"/>
</g>
<g>
	<path class="st1" d="M785.5,222.8c0,0-1.7-64.4,0-66.1s-6.2-17.4-6.2-17.4l43.9-22c0,0,19.2,0.4,19.2,34.5s0,51.6,0,51.6
		s0,8.9,7.9,13.2"/>
	<path class="st1" d="M788.2,134.8c0,0,14.6,1.1,14.6,32.6s0,47.7,0,47.7s0,8.2,7.3,12.2"/>
</g>
<line class="st1" x1="363.7" y1="1003.8" x2="1046.3" y2="717.9"/>
<path class="st1" d="M200.7,956.8l10-5.7c0,0-11.7,62.3,31.4,78.2"/>
<polyline class="st1" points="282,980.2 293.2,973.9 363.7,995.2 1020.2,720.6 728.4,670.9 60.4,907.1 210.7,951.1 "/>
<line class="st1" x1="728.4" y1="670.9" x2="728.4" y2="842.7"/>
<polyline class="st1" points="116.6,923.5 728.4,701.5 968.6,742.2 "/>
<ellipse class="st1" cx="539.2" cy="283.3" rx="8.2" ry="17.1"/>
<ellipse class="st1" cx="539.2" cy="355.8" rx="8.2" ry="17.1"/>
</svg>
