<?xml version="1.0" encoding="utf-8"?>
<!-- Generator: Adobe Illustrator 20.1.0, SVG Export Plug-In . SVG Version: 6.00 Build 0)  -->
<svg version="1.1" id="Layer_2" xmlns="http://www.w3.org/2000/svg" xmlns:xlink="http://www.w3.org/1999/xlink" x="0px" y="0px"
	 viewBox="0 0 1085 1200" style="enable-background:new 0 0 1085 1200;" xml:space="preserve">
<style type="text/css">
	.st0{stroke:#FFFFFF;stroke-width:2;stroke-linecap:round;stroke-linejoin:round;stroke-miterlimit:10;}
	.st1{fill:none;stroke:#FFFFFF;stroke-width:2;stroke-linecap:round;stroke-linejoin:round;stroke-miterlimit:10;}
</style>
<path class="st0" d="M812.8,129.2l-5.7,810.1c0,0,0,0-22.3,15.3C511,1067.4,474,1054.7,474,1054.7l-29.3-5.8V174.5"/>
<path class="st0" d="M924.8,582.7c1.7,0.3,8.7,26.7,8.7,26.7s7.9,1,11.4-1.9c0-28.3,0-30.5,0-30.5L924.8,582.7z"/>
<polygon class="st0" points="903.3,525.9 913.2,582.7 953.3,575.6 945,514.9 "/>
<path class="st0" d="M900.4,519.3l1.3,8c0,0,25.5,3.8,47.6-9.6c-1.9-5.3-2.1-8-2.1-8L900.4,519.3z"/>
<path class="st0" d="M42.7,989.2l400.3,64c0,0,22.9,9.1,22.9-16.7c0-25.8,6.2-921.4,6.2-921.4"/>
<line class="st0" x1="472.1" y1="1048.3" x2="480.4" y2="198.7"/>
<path class="st0" d="M493.8,181.5l-4.5,728c0,0-3.8,72.6,42,56.7"/>
<path class="st0" d="M495.4,950l51.9,5.2c0,0,8.3-1.2,8.3,13.1c0,14.3,0,44.8,0,44.8s-6.4,17.2,10.2,12.1
	c16.6-5.1,190.4-67.5,190.4-67.5s14-1.3,14-25.5s0-49.7,0-49.7l27.4-9.6l7-515.9l-21.7,15.9c0,0-195.5,68.8-263.7,89.2
	c-16.6-1.9-27.2-2.6-27.2-2.6"/>
<line class="st0" x1="519.2" y1="462.3" x2="519.2" y2="168.7"/>
<line class="st0" x1="770.2" y1="882.7" x2="554.4" y2="960.8"/>
<line class="st0" x1="490" y1="927.3" x2="662.3" y2="861.7"/>
<path class="st0" d="M784,468.2c1.7-0.6,57.4,10.8,57.4,10.8s24.7,21.5,5.7,25.3c0,3.8-0.5,8.1,0,8.1c0.5,0,16.6-1.9-1.4,19.6
	c0,9.6,0,19.1,0,19.1h10.9v41v80.3h-3.3l1,81.2h-3.3v83.1c0,0-2.9,33.9-27.1,43.9s-58.9,23.9-58.9,23.9s-4.8,2.9-19,0
	c-14.3-2.9-256.6-43-256.6-43l1.9-302.8L784,468.2z"/>
<line class="st0" x1="512.9" y1="471.6" x2="491.8" y2="469.2"/>
<path class="st0" d="M764.7,476l81.9,13.1l-13.9,9.6c0,0-14.3,39.5-54.5,19.7c-15.8,7.5-18.2,7.5-18.2,7.5l-93.4-13.7"/>
<line class="st0" x1="760.1" y1="525.9" x2="760.1" y2="896.5"/>
<polygon class="st0" points="782.9,373.2 791.2,466.2 510.3,570 512.9,471.6 "/>
<polyline class="st0" points="856.6,565.4 760.1,607.5 538,572.2 "/>
<path class="st0" d="M826.3,572.2l17.5-7.6c0,0,7.4-3.3,7.4,10.5s2.4,36.5-12.4,40.1c-14.8,3.6-18-4.1-18.2-13.9s0-26.7,0-26.7
	S823.9,573.2,826.3,572.2z"/>
<g>
	<path class="st0" d="M837.1,575.1c-0.9,0-1.8,0.2-2.6,0.5c2.7,3.4,4.5,8.6,4.5,14.6c0,8.7-3.7,16-8.8,17.9c1.9,2.4,4.3,3.8,6.9,3.8
		c6.3,0,11.4-8.2,11.4-18.4C848.4,583.3,843.3,575.1,837.1,575.1z"/>
	<path class="st0" d="M838.9,590.1c0-5.9-1.8-11.2-4.5-14.6c-5,1.9-8.8,9.2-8.8,17.9c0,5.9,1.8,11.2,4.5,14.6
		C835.2,606.1,838.9,598.8,838.9,590.1z"/>
</g>
<path class="st0" d="M823.3,578.6l21.8-10.5c0,0,5.8-2.4,5.9,5.3"/>
<path class="st0" d="M837.2,491.3l-9.1,4.8c0,0-14.6,34.1-48.1,18.2c-15.3,6.1-19.9,7.6-19.9,7.6l-86.3-12.4"/>
<path class="st0" d="M770.2,350.1V203.9c0,0-1.9-16.7,10-22.4c11.9-5.7,24.4-17.7,24.4,12.9s-9,57.8,27.7,62.6
	c36.7,4.8,106.5,17.7,106.5,17.7s10.5,2.4,10.5,15.8s0,47.8,0,47.8l-27.7,11.9c0,0-17.7,1.9-26.3,2.9c-8.6,1-63,7.6-63,7.6
	L770.2,350.1z"/>
<path class="st1" d="M791.2,181.5c0,0-15.8,1.9-15.8,20.5s0,35.3,0,35.3s-1,28.7,22.9,33.9s102.7,17.7,102.7,17.7s12.2,3.5,27.2-4.3
	c6.7-4.3,11.5-6.7,11.5-6.7"/>
<polyline class="st0" points="832.3,360.6 832.3,277.2 869.2,262.5 "/>
<path class="st0" d="M882.3,458.2l7.6,27.7v31.8c0,0,34.7,8.3,66.2-9.6c-8.3-23.2-11.5-32.2-11.5-32.2l-4.9-28.3L882.3,458.2z"/>
<polygon class="st0" points="877.2,451.5 885.4,447.7 946.3,437.5 949.3,447.7 913.2,459.5 877.2,459.5 "/>
<line class="st0" x1="913.2" y1="459.5" x2="910.5" y2="448.5"/>
<path class="st0" d="M885.4,447.7l-1.9-13.7c0,0,6.4-8,50.6-9.6c1.5,14.8,1.5,14.8,1.5,14.8s-21.2,14.5-51.9,9.2"/>
<path class="st0" d="M918.9,585.9c-2,0-3.3-0.1-3.5-0.1c-2.3-0.1-4-2.1-3.9-4.4c0.1-2.3,2.1-4,4.4-3.9c0.2,0,19.9,1,34-5.8
	c2.1-1,4.5-0.1,5.5,1.9c1,2.1,0.1,4.5-1.9,5.5C941.1,585.2,925.7,585.9,918.9,585.9z"/>
<path class="st0" d="M914,564.6c-2.2,0-3.6-0.1-3.8-0.1c-2.5-0.1-4.4-2.3-4.2-4.7c0.1-2.5,2.3-4.4,4.7-4.2c0.2,0,21.5,1.1,36.7-6.3
	c2.2-1.1,4.9-0.1,6,2.1c1.1,2.2,0.1,4.9-2.1,6C938,563.8,921.4,564.6,914,564.6z"/>
<path class="st0" d="M883.5,434c0,0,29.3,7,50.6-9.6"/>
<path class="st0" d="M928.3,658.5c0,0,29.5-10.2,40-5.1c5.1,22.6,6.1,38.4,6.1,38.4l-3.8,3.3l15,93.3h4.8c0,0,0.6,15.6-6.1,15.9
	c-6.7,0.3-9.9-5.4-14-5.1c-4.1,0.3,0.3,6.4-6.4,7c-6.7,0.6-13.9-9.6-10-14.3c-3.1-29.6-14.6-93.9-14.6-93.9l-4.3-1.3L928.3,658.5z"
	/>
<polyline class="st0" points="933.6,656.8 936.4,680.1 942.8,687.1 961.7,806.1 "/>
<polyline class="st0" points="961.7,652 965.1,678.9 959.3,685.6 982.2,804.2 "/>
<path class="st0" d="M959.3,685.6c0,0-9.8,3.7-16.5,1.5"/>
<path class="st0" d="M936.4,680.1l6.4-1.9c0,0-0.3,5.4,2.2,5.1c2.5-0.3,5.4-4.8,20.1-4.5"/>
<path class="st0" d="M961.7,771.5l-5.9,1.6l3.5,25.5c0,0,9.3,0.6,9.3,0C968.6,798,961.7,771.5,961.7,771.5z"/>
<path class="st0" d="M950.7,858.8c0,0-6.1-10.2,29.3-15.9c35.3-5.7,33.8,1,34.4,5.1c0.6,4.1,29.6,222.3,29.6,222.3s1.9,6.1-4.5,7.3
	c-6.4,1.3-36.3,7-36.3,7s-3.6,0.6-6-6.7S950.7,858.8,950.7,858.8z"/>
<path class="st0" d="M953.9,854.3c1.6,0,33.4,2.5,55.7-10.5"/>
<line class="st0" x1="653.2" y1="517.1" x2="650.7" y2="421.3"/>
<path class="st0" d="M712.9,715.8c-24.8-4.5-24.8-4.5-24.8-4.5L609.1,736c-0.3-61.7-32.9-106.8-32.9-106.8l-84.3-130.6l-0.6,98.7
	l40.1,61.1c0,0,23.1,24.8,23.1,82.8c0,49.5,0,54.4,0,54.8c0,0-2.1,8.9,8.1,11.5c10.2,2.5,28.7,7,28.7,7s3.8,2.5,22.9-4.5
	s110.2-47.1,110.2-47.1s7-2.5,6.4-15.3C730.1,734.9,737.7,720.3,712.9,715.8z"/>
<path class="st0" d="M491.8,498.6l84.3,130.6c0,0,42.5,58.6,31,133.7c72-22.3,112.1-36.9,112.1-36.9"/>
<path class="st0" d="M491.2,518.4l78.3,126.1c0,0,24.8,35.7,24.8,95.5s0,65,0,65"/>
</svg>
