<svg xmlns="http://www.w3.org/2000/svg" viewBox="0 0 1085 1693.9" enable-background="new 0 0 1085 1693.9"><style type="text/css">.st0{stroke:#FFFFFF;stroke-width:2;stroke-miterlimit:10;} .st1{stroke:#FFFFFF;stroke-width:2;stroke-linecap:round;stroke-linejoin:round;stroke-miterlimit:10;}</style><path class="st0" d="M152.8 151.5v40.5s19.9 15.3 45.2 0v-54l-45.2 13.5zM143.2 134.8l9.6 16.7s32 13.2 58 0c25.9-13.2-67.6-16.7-67.6-16.7zM843.3 289.3v368.7s26.1 2.8 26.1-18.5v-360.4"/><path class="st1" d="M540.2 170l-413.8-127.8s-37-11.4-49.4 29.1 12.3 56 30.2 59.7l221.6 64.1"/><path class="st0" d="M1046.3 717.9l-7.5 426.7s-11.7 2.1-11.7 22.8v111.6s-1.4 17.8-19.2 23.5l-36.4 12.1s6.2 21.3-21.3 30.6c-27.4 9.2-242.2 86-242.2 86s-3.4 17.1-32.2 27.7c-28.8 10.7-277.8 99.6-277.8 99.6s-17.1 10-23.3 19.2c-6.2 9.2-29.5 38.4-102.2 19.9s-211.3-54.8-212.7-59c-1.4-4.3-12.3-2.1-12.3-32.7s-13.3-597.1-13.3-597.1l693.4-245.7 318.7 54.8zM513.3 170s203-87.9 207.2-88.7c4.1-.7 302.5 91.7 302.5 91.7s23.3 2.8 23.3 47.6c-65.2 29.2-651.7 270.2-651.7 270.2s-20.6 2.8-39.1 0l-325.2-80.2 3.4-170s-3.4-9.2 25.4-19.9c28.9-10.7 236.7-96.2 251.8-102.1 15.1-6 37 2.9 37 2.9l165.4 48.5z"/><path class="st1" d="M697.2 142.4s-3.6-34.8 19.8-42.3 28.5-8.2 41.2 3.6c-2.1 3.9-5.5 13.5-5.5 13.5v2.8M758.2 103.7l-38.4 17.8s-3.4-7.1-6.2-11.4M513.3 170M581.5 189.6l-68.2-19.6M639.5 264.1v71.1l368.4-149.4"/><path class="st1" d="M77.7 224.5l228.4-89.7s17.8-8.4 46 0c28.1 8.4 188.2 54.8 188.2 54.8s32.7 8.3 10.8 16.9c-22 8.5-221.6 91-221.6 91s-18.5 6.4-37.7 0l-28.1-10.7s-42.1 12.4-86 6l-76.7-46.5c-22-5.7-50-11.4-23.3-21.8zM328.7 145.3v82M46.8 242l42.5 9.2s24.7 39.1 72.7 49.1 68.5 6.2 95.2-3c48.7 14.2 42 12.3 42 12.3s8.9 7.1 38.4-5l240.8-96.7s5.5-4.3 18.5 0 17.8 9 0 16.6l-170.8 75.9s-34.3 13.5-35.7 48.4c0 13.5 6.2 22 33.6 10.7 27.4-11.4 172.2-74 172.2-74s6.9 5.8-4.8 10.7c-11.7 5-189 81.1-189 81.1s-16.5 5.3-13.7 24.9c2.7 19.6 20.9 33.4 56.6 18.8l186.9-79.6v23.5l-251.4 107-66.2-13.2 84.8-37.4M314.7 458.6v-132M639.5 362.4l368.4-146.7M399.4 355.8s1.4-36.5 37-51.7c35.7-15.2 188-81.4 188-81.4M412.2 422.6s-24.2-27 0-37.5c24.2-10.4 191.6-80.6 191.6-80.6s12.3-4.1 11.9-15.5c-.5-11.5-8.2-11-13.3-8.6M204.6 440.2l7.3-4.3 71.6 16.6s9.8.9 9.8 21.8 7.3 72.1-50.1 69.7"/><path class="st1" d="M204.6 440.2s-21.5 103.9 36.6 103.8c49.8.1 42.1-50.3 41.6-68.3s-10.5-20.4-21-22.8c-10.6-2.3-57.2-12.7-57.2-12.7zM229.1 487.7c0-11.5 4.3-21.7 11-28.8-15.9 2.5-28.2 18.6-28.2 38.1 0 21.2 14.5 38.5 32.5 38.5 8.3 0 15.8-3.7 21.5-9.7-1.4.2-2.8.4-4.3.4-17.9-.1-32.5-17.3-32.5-38.5zM244.4 458.6c-1.5 0-2.9.2-4.3.4-6.7 7-11 17.3-11 28.8 0 21.2 14.5 38.5 32.5 38.5 1.5 0 2.9-.2 4.3-.4 6.7-7 11-17.3 11-28.8-.1-21.3-14.6-38.5-32.5-38.5zM363.7 1541.4v-537.6l-81.7-23.6s7.6 49.1-40 49.1c-47.7 0-41.4-72.5-41.4-72.5l-166.5-48M508.6 160.2l83.8 25s3.9 8.7-18.9 2.1l-70.8-20.4"/><path class="st1" d="M980.2 73.5c-11.7-24.9-37-31.3-37-31.3l-361.7 147.4 45.6 13.3s12.3 3.2 12.3 24.3v36.9l337.4-140.1s15.1-25.6 3.4-50.5zM679.1 266.2s-1.7-64.4 0-66.1c1.7-1.8-6.2-17.4-6.2-17.4l43.9-22s19.2.4 19.2 34.5v51.6s0 8.9 7.9 13.2M681.8 178.2s14.6 1.1 14.6 32.6v47.7s0 8.2 7.3 12.2M785.5 222.8s-1.7-64.4 0-66.1l-6.2-17.4 43.9-22s19.2.4 19.2 34.5v51.6s0 8.9 7.9 13.2M788.2 134.8s14.6 1.1 14.6 32.6v47.7s0 8.2 7.3 12.2M363.7 1003.8l682.6-285.9M200.7 956.8l10-5.7s-11.7 62.3 31.4 78.2M282 980.2l11.2-6.3 70.5 21.3 656.5-274.6-291.8-49.7-668 236.2 150.3 44M728.4 670.9v171.8M116.6 923.5l611.8-222 240.2 40.7"/><ellipse class="st1" cx="539.2" cy="283.3" rx="8.2" ry="17.1"/><ellipse class="st1" cx="539.2" cy="355.8" rx="8.2" ry="17.1"/></svg>